<svg width="134" height="29" viewBox="0 0 134 29" fill="none" xmlns="http://www.w3.org/2000/svg">
<path d="M17.108 20.764C17.108 19.804 17 18.856 16.784 17.92C16.592 16.96 16.196 16.156 15.596 15.508C15.02 14.86 14.132 14.536 12.932 14.536C12.116 14.536 11.3 14.56 10.484 14.608C9.692 14.632 8.888 14.644 8.072 14.644V25.912C8.072 26.584 8.24 26.98 8.576 27.1C8.936 27.22 9.38 27.28 9.908 27.28C10.196 27.28 10.484 27.28 10.772 27.28C11.084 27.28 11.384 27.268 11.672 27.244C12.872 27.172 13.868 26.836 14.66 26.236C15.476 25.636 16.088 24.856 16.496 23.896C16.904 22.936 17.108 21.892 17.108 20.764ZM15.308 7.912C15.308 6.496 15.092 5.428 14.66 4.708C14.252 3.964 13.616 3.472 12.752 3.232C11.888 2.968 10.808 2.836 9.512 2.836C9.272 2.836 9.032 2.848 8.792 2.872C8.552 2.872 8.312 2.884 8.072 2.908V13.564H9.116C9.596 13.564 10.124 13.552 10.7 13.528C11.276 13.48 11.828 13.372 12.356 13.204C12.908 13.036 13.364 12.772 13.724 12.412C14.276 11.86 14.672 11.164 14.912 10.324C15.176 9.484 15.308 8.68 15.308 7.912ZM22.256 20.152C22.256 21.784 21.872 23.236 21.104 24.508C20.36 25.756 19.22 26.704 17.684 27.352C16.82 27.736 15.848 27.976 14.768 28.072C13.712 28.192 12.716 28.252 11.78 28.252C11.564 28.252 11.348 28.252 11.132 28.252C10.916 28.252 10.7 28.24 10.484 28.216C8.732 28.144 6.968 28.108 5.192 28.108C4.52 28.108 3.848 28.132 3.176 28.18C2.504 28.252 1.82 28.288 1.124 28.288C1.028 28.288 0.944 28.24 0.872 28.144C0.8 28.072 0.764 27.988 0.764 27.892C0.764 27.604 0.872 27.436 1.088 27.388C1.328 27.316 1.604 27.256 1.916 27.208C2.228 27.16 2.516 27.016 2.78 26.776C3.044 26.536 3.2 26.08 3.248 25.408C3.272 25.12 3.284 24.832 3.284 24.544C3.284 24.256 3.284 23.968 3.284 23.68C3.284 20.632 3.272 17.596 3.248 14.572C3.248 11.524 3.248 8.476 3.248 5.428C3.248 4.372 3.068 3.724 2.708 3.484C2.348 3.244 1.676 3.124 0.692 3.124C0.524 3.124 0.368 3.064 0.224 2.944C0.104 2.824 0.044 2.68 0.044 2.512C0.044 2.056 0.296 1.828 0.8 1.828C1.28 1.828 1.772 1.852 2.276 1.9C2.78 1.948 3.272 1.972 3.752 1.972C4.976 1.972 6.2 1.936 7.424 1.864C8.648 1.768 9.872 1.672 11.096 1.576C11.336 1.552 11.564 1.54 11.78 1.54C12.02 1.516 12.248 1.504 12.464 1.504C13.832 1.504 15.116 1.672 16.316 2.008C17.54 2.32 18.524 2.908 19.268 3.772C20.036 4.636 20.42 5.884 20.42 7.516C20.42 8.452 20.168 9.34 19.664 10.18C19.184 11.02 18.572 11.716 17.828 12.268C17.588 12.484 17.324 12.676 17.036 12.844C16.748 12.988 16.448 13.132 16.136 13.276C16.088 13.3 15.992 13.348 15.848 13.42C15.728 13.468 15.668 13.54 15.668 13.636C15.668 13.708 15.728 13.768 15.848 13.816C15.992 13.84 16.088 13.864 16.136 13.888C16.52 13.984 16.892 14.092 17.252 14.212C17.612 14.308 17.972 14.452 18.332 14.644C19.436 15.172 20.36 15.904 21.104 16.84C21.872 17.776 22.256 18.88 22.256 20.152ZM37.6041 15.364C37.6041 14.884 37.5801 14.308 37.5321 13.636C37.4841 12.964 37.3641 12.316 37.1721 11.692C37.0041 11.044 36.7281 10.504 36.3441 10.072C35.9601 9.64 35.4321 9.424 34.7601 9.424C34.1121 9.424 33.5361 9.64 33.0321 10.072C32.5521 10.48 32.1441 11.008 31.8081 11.656C31.4721 12.28 31.2081 12.94 31.0161 13.636C30.8241 14.308 30.6801 14.908 30.5841 15.436C30.9921 15.436 31.3881 15.448 31.7721 15.472C32.1801 15.472 32.5761 15.472 32.9601 15.472C34.5201 15.472 36.0681 15.436 37.6041 15.364ZM42.7881 23.32C42.7881 23.392 42.7641 23.5 42.7161 23.644C42.6921 23.764 42.6561 23.86 42.6081 23.932C42.4401 24.316 42.1281 24.76 41.6721 25.264C41.2161 25.744 40.8081 26.116 40.4481 26.38C38.8401 27.604 36.9801 28.216 34.8681 28.216C32.9721 28.216 31.3281 27.82 29.9361 27.028C28.5441 26.212 27.4761 25.084 26.7321 23.644C25.9881 22.204 25.6161 20.548 25.6161 18.676C25.6161 16.804 25.9761 15.112 26.6961 13.6C27.4401 12.064 28.4961 10.852 29.8641 9.964C31.2561 9.052 32.9241 8.596 34.8681 8.596C37.1001 8.596 38.8881 9.208 40.2321 10.432C41.5761 11.656 42.2481 13.408 42.2481 15.688C42.2481 16.312 41.9601 16.624 41.3841 16.624C40.3281 16.624 39.2721 16.612 38.2161 16.588C37.1601 16.564 36.1041 16.552 35.0481 16.552C34.2801 16.552 33.5121 16.552 32.7441 16.552C31.9761 16.552 31.2081 16.564 30.4401 16.588C30.3681 17.308 30.3321 18.04 30.3321 18.784C30.3321 19.456 30.4161 20.248 30.5841 21.16C30.7761 22.072 31.0521 22.96 31.4121 23.824C31.7961 24.688 32.2881 25.408 32.8881 25.984C33.4881 26.536 34.2201 26.812 35.0841 26.812C36.1641 26.812 37.0641 26.656 37.7841 26.344C38.5281 26.032 39.1881 25.588 39.7641 25.012C40.3401 24.436 40.9281 23.752 41.5281 22.96C41.6001 22.864 41.6721 22.792 41.7441 22.744C41.8401 22.672 41.9481 22.636 42.0681 22.636C42.2361 22.636 42.3921 22.708 42.5361 22.852C42.7041 22.972 42.7881 23.128 42.7881 23.32ZM56.9693 26.272C56.9693 26.608 56.7893 26.908 56.4293 27.172C56.0933 27.412 55.6613 27.616 55.1333 27.784C54.6293 27.928 54.1133 28.036 53.5853 28.108C53.0573 28.18 52.6133 28.216 52.2533 28.216C50.4533 28.216 49.2053 27.856 48.5093 27.136C47.8133 26.392 47.4653 25.168 47.4653 23.464C47.4653 21.4 47.4773 19.336 47.5013 17.272C47.5253 15.208 47.5373 13.144 47.5373 11.08H45.8813C45.6413 11.08 45.4373 11.164 45.2693 11.332C45.1013 11.476 44.9453 11.548 44.8013 11.548C44.5613 11.548 44.4413 11.428 44.4413 11.188C44.4413 11.092 44.4893 10.912 44.5853 10.648C44.6813 10.384 44.7533 10.216 44.8013 10.144C44.8733 10 44.9453 9.916 45.0173 9.892C45.0893 9.868 45.1973 9.856 45.3413 9.856H47.5733V6.004C48.1733 5.668 48.8333 5.176 49.5533 4.528C50.2733 3.88 50.8253 3.28 51.2093 2.728C51.2813 2.608 51.3773 2.488 51.4973 2.368C51.6173 2.224 51.7613 2.152 51.9293 2.152C52.3133 2.152 52.4933 2.32 52.4693 2.656L52.3613 9.856H56.0693C56.2613 9.856 56.4293 9.904 56.5733 10C56.7413 10.072 56.8253 10.216 56.8253 10.432C56.8253 10.888 56.5733 11.116 56.0693 11.116H52.3613L52.2893 25.012C52.2893 25.396 52.3613 25.768 52.5053 26.128C52.6733 26.464 52.9853 26.632 53.4413 26.632C53.8493 26.632 54.2573 26.596 54.6653 26.524C55.0973 26.452 55.4933 26.332 55.8533 26.164C55.9733 26.116 56.0813 26.068 56.1773 26.02C56.2973 25.948 56.4173 25.912 56.5373 25.912C56.8253 25.912 56.9693 26.032 56.9693 26.272ZM69.0318 24.184C68.9598 23.056 68.9118 21.928 68.8878 20.8C68.8638 19.648 68.8638 18.496 68.8878 17.344C67.9038 17.512 66.9438 17.824 66.0078 18.28C65.0958 18.712 64.3398 19.3 63.7398 20.044C63.1398 20.788 62.8398 21.736 62.8398 22.888C62.8398 23.368 62.8998 23.884 63.0198 24.436C63.1638 24.988 63.4038 25.456 63.7398 25.84C64.0998 26.2 64.5798 26.38 65.1798 26.38C65.6118 26.38 66.0678 26.26 66.5478 26.02C67.0278 25.756 67.4838 25.456 67.9158 25.12C68.3718 24.784 68.7438 24.472 69.0318 24.184ZM76.4478 26.308C76.4478 26.404 76.3998 26.512 76.3038 26.632C76.2318 26.752 76.1598 26.848 76.0878 26.92C75.3438 27.784 74.3838 28.216 73.2078 28.216C72.1758 28.216 71.3478 27.988 70.7238 27.532C70.0998 27.076 69.6198 26.368 69.2838 25.408C68.5158 26.224 67.6878 26.872 66.7998 27.352C65.9358 27.832 64.9158 28.072 63.7398 28.072C62.8998 28.072 62.0478 27.892 61.1838 27.532C60.3438 27.148 59.6358 26.608 59.0598 25.912C58.5078 25.216 58.2318 24.412 58.2318 23.5C58.2318 22.588 58.4598 21.784 58.9158 21.088C59.3958 20.368 59.9958 19.756 60.7158 19.252C61.4358 18.724 62.1678 18.292 62.9118 17.956C63.8718 17.548 64.8558 17.236 65.8638 17.02C66.8718 16.78 67.8798 16.54 68.8878 16.3V16.156C68.8878 15.724 68.8758 15.148 68.8518 14.428C68.8518 13.684 68.7798 12.952 68.6358 12.232C68.4918 11.488 68.2518 10.864 67.9158 10.36C67.5798 9.832 67.0878 9.568 66.4398 9.568C65.6958 9.568 65.0238 9.784 64.4238 10.216C63.8478 10.648 63.4398 11.224 63.1998 11.944C63.1518 12.16 63.1158 12.376 63.0918 12.592C63.0678 12.784 63.0318 12.988 62.9838 13.204C62.9358 13.588 62.7078 13.852 62.2998 13.996C61.9158 14.116 61.5558 14.176 61.2198 14.176C60.8118 14.176 60.4158 14.092 60.0318 13.924C59.6478 13.732 59.4558 13.384 59.4558 12.88C59.4558 12.688 59.4798 12.52 59.5278 12.376C59.5998 12.208 59.6718 12.04 59.7438 11.872C60.1278 10.96 60.7038 10.288 61.4718 9.856C62.2398 9.424 63.0798 9.136 63.9918 8.992C64.9278 8.848 65.8158 8.776 66.6558 8.776C68.6238 8.776 70.2438 9.304 71.5158 10.36C72.7878 11.416 73.4238 12.976 73.4238 15.04V20.476C73.3998 21.148 73.3878 21.844 73.3878 22.564C73.4118 23.26 73.4478 23.956 73.4958 24.652C73.5438 25.06 73.6398 25.456 73.7838 25.84C73.9278 26.2 74.2518 26.38 74.7558 26.38C75.0918 26.38 75.3678 26.308 75.5838 26.164C75.8238 26.02 76.0398 25.948 76.2318 25.948C76.3278 25.948 76.3878 25.996 76.4118 26.092C76.4358 26.188 76.4478 26.26 76.4478 26.308ZM98.1178 6.832C98.1178 7.072 97.9978 7.264 97.7578 7.408C97.5178 7.528 97.2898 7.588 97.0738 7.588C96.8098 7.588 96.5698 7.54 96.3538 7.444C96.1618 7.324 96.0298 7.12 95.9578 6.832C95.6458 5.824 95.1658 4.948 94.5178 4.204C93.8698 3.436 92.9698 3.052 91.8178 3.052H86.1298V13.888C86.4898 13.888 86.8498 13.888 87.2098 13.888C87.5698 13.888 87.9298 13.888 88.2898 13.888C89.1778 13.888 90.0658 13.864 90.9538 13.816C91.8658 13.768 92.7538 13.648 93.6178 13.456C93.9538 13.36 94.3018 13.252 94.6618 13.132C95.0218 13.012 95.3818 12.952 95.7418 12.952C96.0298 12.952 96.1738 13.084 96.1738 13.348C96.1738 13.54 96.1258 13.792 96.0298 14.104C95.9578 14.416 95.8858 14.668 95.8138 14.86C95.7178 15.172 95.5978 15.364 95.4538 15.436C95.3338 15.484 95.1178 15.508 94.8058 15.508C93.7018 15.508 92.6098 15.448 91.5298 15.328C90.4498 15.208 89.3578 15.148 88.2538 15.148C87.7498 15.148 87.2698 15.256 86.8138 15.472C86.3578 15.664 86.1298 16.072 86.1298 16.696V25.048C86.1298 25.768 86.2618 26.26 86.5258 26.524C86.7898 26.788 87.1498 26.932 87.6058 26.956C88.0618 26.956 88.5538 26.956 89.0818 26.956C89.2738 26.956 89.4418 27.004 89.5858 27.1C89.7538 27.172 89.8378 27.316 89.8378 27.532C89.8378 28.036 89.5858 28.288 89.0818 28.288C88.9618 28.288 88.8418 28.288 88.7218 28.288C88.6018 28.288 88.4818 28.276 88.3618 28.252C87.5698 28.204 86.7778 28.18 85.9858 28.18C85.1938 28.18 84.4138 28.18 83.6458 28.18C82.8538 28.18 82.0618 28.204 81.2698 28.252C80.4778 28.324 79.6858 28.36 78.8938 28.36C78.7018 28.36 78.5218 28.324 78.3538 28.252C78.1858 28.204 78.1018 28.06 78.1018 27.82C78.1018 27.508 78.1978 27.316 78.3898 27.244C78.6058 27.172 78.8698 27.148 79.1818 27.172C79.4938 27.172 79.8058 27.136 80.1178 27.064C80.4298 26.968 80.6818 26.752 80.8738 26.416C81.0898 26.056 81.1978 25.492 81.1978 24.724V4.924C81.1978 4.372 81.1138 3.952 80.9458 3.664C80.7778 3.352 80.3938 3.196 79.7938 3.196C79.5778 3.196 79.3618 3.208 79.1458 3.232C78.9538 3.232 78.7498 3.232 78.5338 3.232C78.2458 3.232 77.9578 3.208 77.6698 3.16C77.4058 3.088 77.2738 2.86 77.2738 2.476C77.2738 2.26 77.3458 2.092 77.4898 1.972C77.6338 1.852 77.8018 1.792 77.9938 1.792C78.8338 1.792 79.6618 1.816 80.4778 1.864C81.3178 1.888 82.1458 1.9 82.9618 1.9C86.5138 1.9 90.0538 1.864 93.5818 1.792C94.2058 1.768 94.8418 1.744 95.4898 1.72C96.1378 1.696 96.7738 1.636 97.3978 1.54C97.4938 2.236 97.5898 2.932 97.6858 3.628C97.7818 4.324 97.8778 5.02 97.9738 5.716C97.9978 5.884 98.0218 6.064 98.0458 6.256C98.0938 6.448 98.1178 6.64 98.1178 6.832ZM109.867 27.568C109.867 27.952 109.675 28.144 109.291 28.144C108.595 28.144 107.887 28.108 107.167 28.036C106.447 27.988 105.727 27.964 105.007 27.964C104.287 27.964 103.555 27.988 102.811 28.036C102.091 28.108 101.371 28.144 100.651 28.144C100.483 28.144 100.363 28.084 100.291 27.964C100.219 27.82 100.183 27.688 100.183 27.568C100.183 27.184 100.363 26.992 100.723 26.992C100.963 26.992 101.191 27.004 101.407 27.028C101.623 27.052 101.839 27.064 102.055 27.064C102.343 27.064 102.523 26.968 102.595 26.776C102.691 26.584 102.739 26.368 102.739 26.128V11.836C102.739 11.596 102.715 11.332 102.667 11.044C102.619 10.732 102.427 10.576 102.091 10.576C101.779 10.576 101.455 10.6 101.119 10.648C100.783 10.696 100.447 10.72 100.111 10.72C99.9665 10.72 99.8225 10.684 99.6785 10.612C99.5585 10.54 99.4985 10.42 99.4985 10.252C99.4985 9.94 99.6545 9.736 99.9665 9.64C100.231 9.592 100.507 9.556 100.795 9.532C101.107 9.484 101.395 9.448 101.659 9.424C102.499 9.304 103.315 9.16 104.107 8.992C104.923 8.8 105.739 8.608 106.555 8.416C106.627 8.416 106.699 8.416 106.771 8.416C106.843 8.392 106.903 8.38 106.951 8.38C107.311 8.38 107.491 8.524 107.491 8.812C107.491 11.692 107.479 14.584 107.455 17.488C107.431 20.368 107.419 23.248 107.419 26.128C107.419 26.56 107.515 26.836 107.707 26.956C107.899 27.052 108.139 27.088 108.427 27.064C108.739 27.04 109.051 27.028 109.363 27.028C109.699 27.028 109.867 27.208 109.867 27.568ZM107.599 2.836C107.599 3.58 107.323 4.228 106.771 4.78C106.243 5.332 105.595 5.608 104.827 5.608C104.083 5.608 103.435 5.332 102.883 4.78C102.331 4.228 102.055 3.58 102.055 2.836C102.055 2.068 102.331 1.42 102.883 0.891999C103.435 0.339999 104.083 0.0639992 104.827 0.0639992C105.595 0.0639992 106.243 0.339999 106.771 0.891999C107.323 1.42 107.599 2.068 107.599 2.836ZM124.294 26.272C124.294 26.608 124.114 26.908 123.754 27.172C123.418 27.412 122.986 27.616 122.458 27.784C121.954 27.928 121.438 28.036 120.91 28.108C120.382 28.18 119.938 28.216 119.578 28.216C117.778 28.216 116.53 27.856 115.834 27.136C115.138 26.392 114.79 25.168 114.79 23.464C114.79 21.4 114.802 19.336 114.826 17.272C114.85 15.208 114.862 13.144 114.862 11.08H113.206C112.966 11.08 112.762 11.164 112.594 11.332C112.426 11.476 112.27 11.548 112.125 11.548C111.886 11.548 111.766 11.428 111.766 11.188C111.766 11.092 111.814 10.912 111.91 10.648C112.006 10.384 112.078 10.216 112.125 10.144C112.198 10 112.27 9.916 112.342 9.892C112.414 9.868 112.522 9.856 112.666 9.856H114.898V6.004C115.498 5.668 116.158 5.176 116.878 4.528C117.598 3.88 118.15 3.28 118.534 2.728C118.606 2.608 118.702 2.488 118.822 2.368C118.942 2.224 119.086 2.152 119.254 2.152C119.638 2.152 119.818 2.32 119.794 2.656L119.686 9.856H123.394C123.586 9.856 123.754 9.904 123.898 10C124.066 10.072 124.15 10.216 124.15 10.432C124.15 10.888 123.898 11.116 123.394 11.116H119.686L119.614 25.012C119.614 25.396 119.686 25.768 119.83 26.128C119.998 26.464 120.31 26.632 120.766 26.632C121.174 26.632 121.582 26.596 121.99 26.524C122.422 26.452 122.818 26.332 123.178 26.164C123.298 26.116 123.406 26.068 123.502 26.02C123.622 25.948 123.742 25.912 123.862 25.912C124.15 25.912 124.294 26.032 124.294 26.272ZM133.368 25.048C133.368 25.792 133.104 26.44 132.576 26.992C132.048 27.544 131.4 27.82 130.632 27.82C129.888 27.82 129.24 27.544 128.688 26.992C128.16 26.44 127.896 25.792 127.896 25.048C127.896 24.28 128.16 23.632 128.688 23.104C129.24 22.552 129.888 22.276 130.632 22.276C131.4 22.276 132.048 22.552 132.576 23.104C133.104 23.632 133.368 24.28 133.368 25.048Z" fill="#101010"/>
</svg>
