<svg width="34" height="28" viewBox="0 0 34 28" fill="none" xmlns="http://www.w3.org/2000/svg">
<path d="M17.108 19.764C17.108 18.804 17 17.856 16.784 16.92C16.592 15.96 16.196 15.156 15.596 14.508C15.02 13.86 14.132 13.536 12.932 13.536C12.116 13.536 11.3 13.56 10.484 13.608C9.692 13.632 8.888 13.644 8.072 13.644V24.912C8.072 25.584 8.24 25.98 8.576 26.1C8.936 26.22 9.38 26.28 9.908 26.28C10.196 26.28 10.484 26.28 10.772 26.28C11.084 26.28 11.384 26.268 11.672 26.244C12.872 26.172 13.868 25.836 14.66 25.236C15.476 24.636 16.088 23.856 16.496 22.896C16.904 21.936 17.108 20.892 17.108 19.764ZM15.308 6.912C15.308 5.496 15.092 4.428 14.66 3.708C14.252 2.964 13.616 2.472 12.752 2.232C11.888 1.968 10.808 1.836 9.512 1.836C9.272 1.836 9.032 1.848 8.792 1.872C8.552 1.872 8.312 1.884 8.072 1.908V12.564H9.116C9.596 12.564 10.124 12.552 10.7 12.528C11.276 12.48 11.828 12.372 12.356 12.204C12.908 12.036 13.364 11.772 13.724 11.412C14.276 10.86 14.672 10.164 14.912 9.324C15.176 8.484 15.308 7.68 15.308 6.912ZM22.256 19.152C22.256 20.784 21.872 22.236 21.104 23.508C20.36 24.756 19.22 25.704 17.684 26.352C16.82 26.736 15.848 26.976 14.768 27.072C13.712 27.192 12.716 27.252 11.78 27.252C11.564 27.252 11.348 27.252 11.132 27.252C10.916 27.252 10.7 27.24 10.484 27.216C8.732 27.144 6.968 27.108 5.192 27.108C4.52 27.108 3.848 27.132 3.176 27.18C2.504 27.252 1.82 27.288 1.124 27.288C1.028 27.288 0.944 27.24 0.872 27.144C0.8 27.072 0.764 26.988 0.764 26.892C0.764 26.604 0.872 26.436 1.088 26.388C1.328 26.316 1.604 26.256 1.916 26.208C2.228 26.16 2.516 26.016 2.78 25.776C3.044 25.536 3.2 25.08 3.248 24.408C3.272 24.12 3.284 23.832 3.284 23.544C3.284 23.256 3.284 22.968 3.284 22.68C3.284 19.632 3.272 16.596 3.248 13.572C3.248 10.524 3.248 7.476 3.248 4.428C3.248 3.372 3.068 2.724 2.708 2.484C2.348 2.244 1.676 2.124 0.692 2.124C0.524 2.124 0.368 2.064 0.224 1.944C0.104 1.824 0.044 1.68 0.044 1.512C0.044 1.056 0.296 0.827998 0.8 0.827998C1.28 0.827998 1.772 0.851998 2.276 0.899999C2.78 0.947999 3.272 0.971998 3.752 0.971998C4.976 0.971998 6.2 0.935999 7.424 0.864C8.648 0.767999 9.872 0.671999 11.096 0.575999C11.336 0.551999 11.564 0.539999 11.78 0.539999C12.02 0.515998 12.248 0.503998 12.464 0.503998C13.832 0.503998 15.116 0.671998 16.316 1.008C17.54 1.32 18.524 1.908 19.268 2.772C20.036 3.636 20.42 4.884 20.42 6.516C20.42 7.452 20.168 8.34 19.664 9.18C19.184 10.02 18.572 10.716 17.828 11.268C17.588 11.484 17.324 11.676 17.036 11.844C16.748 11.988 16.448 12.132 16.136 12.276C16.088 12.3 15.992 12.348 15.848 12.42C15.728 12.468 15.668 12.54 15.668 12.636C15.668 12.708 15.728 12.768 15.848 12.816C15.992 12.84 16.088 12.864 16.136 12.888C16.52 12.984 16.892 13.092 17.252 13.212C17.612 13.308 17.972 13.452 18.332 13.644C19.436 14.172 20.36 14.904 21.104 15.84C21.872 16.776 22.256 17.88 22.256 19.152ZM33.0321 24.048C33.0321 24.792 32.7681 25.44 32.2401 25.992C31.7121 26.544 31.0641 26.82 30.2961 26.82C29.5521 26.82 28.9041 26.544 28.3521 25.992C27.8241 25.44 27.5601 24.792 27.5601 24.048C27.5601 23.28 27.8241 22.632 28.3521 22.104C28.9041 21.552 29.5521 21.276 30.2961 21.276C31.0641 21.276 31.7121 21.552 32.2401 22.104C32.7681 22.632 33.0321 23.28 33.0321 24.048Z" fill="#101010"/>
</svg>
