<svg width="54" height="54" viewBox="0 0 54 54" fill="none" xmlns="http://www.w3.org/2000/svg">
<rect width="54" height="54" fill="#101010"/>
<path d="M30.09 32.97C30.09 32.17 30 31.38 29.82 30.6C29.66 29.8 29.33 29.13 28.83 28.59C28.35 28.05 27.61 27.78 26.61 27.78C25.93 27.78 25.25 27.8 24.57 27.84C23.91 27.86 23.24 27.87 22.56 27.87V37.26C22.56 37.82 22.7 38.15 22.98 38.25C23.28 38.35 23.65 38.4 24.09 38.4C24.33 38.4 24.57 38.4 24.81 38.4C25.07 38.4 25.32 38.39 25.56 38.37C26.56 38.31 27.39 38.03 28.05 37.53C28.73 37.03 29.24 36.38 29.58 35.58C29.92 34.78 30.09 33.91 30.09 32.97ZM28.59 22.26C28.59 21.08 28.41 20.19 28.05 19.59C27.71 18.97 27.18 18.56 26.46 18.36C25.74 18.14 24.84 18.03 23.76 18.03C23.56 18.03 23.36 18.04 23.16 18.06C22.96 18.06 22.76 18.07 22.56 18.09V26.97H23.43C23.83 26.97 24.27 26.96 24.75 26.94C25.23 26.9 25.69 26.81 26.13 26.67C26.59 26.53 26.97 26.31 27.27 26.01C27.73 25.55 28.06 24.97 28.26 24.27C28.48 23.57 28.59 22.9 28.59 22.26ZM34.38 32.46C34.38 33.82 34.06 35.03 33.42 36.09C32.8 37.13 31.85 37.92 30.57 38.46C29.85 38.78 29.04 38.98 28.14 39.06C27.26 39.16 26.43 39.21 25.65 39.21C25.47 39.21 25.29 39.21 25.11 39.21C24.93 39.21 24.75 39.2 24.57 39.18C23.11 39.12 21.64 39.09 20.16 39.09C19.6 39.09 19.04 39.11 18.48 39.15C17.92 39.21 17.35 39.24 16.77 39.24C16.69 39.24 16.62 39.2 16.56 39.12C16.5 39.06 16.47 38.99 16.47 38.91C16.47 38.67 16.56 38.53 16.74 38.49C16.94 38.43 17.17 38.38 17.43 38.34C17.69 38.3 17.93 38.18 18.15 37.98C18.37 37.78 18.5 37.4 18.54 36.84C18.56 36.6 18.57 36.36 18.57 36.12C18.57 35.88 18.57 35.64 18.57 35.4C18.57 32.86 18.56 30.33 18.54 27.81C18.54 25.27 18.54 22.73 18.54 20.19C18.54 19.31 18.39 18.77 18.09 18.57C17.79 18.37 17.23 18.27 16.41 18.27C16.27 18.27 16.14 18.22 16.02 18.12C15.92 18.02 15.87 17.9 15.87 17.76C15.87 17.38 16.08 17.19 16.5 17.19C16.9 17.19 17.31 17.21 17.73 17.25C18.15 17.29 18.56 17.31 18.96 17.31C19.98 17.31 21 17.28 22.02 17.22C23.04 17.14 24.06 17.06 25.08 16.98C25.28 16.96 25.47 16.95 25.65 16.95C25.85 16.93 26.04 16.92 26.22 16.92C27.36 16.92 28.43 17.06 29.43 17.34C30.45 17.6 31.27 18.09 31.89 18.81C32.53 19.53 32.85 20.57 32.85 21.93C32.85 22.71 32.64 23.45 32.22 24.15C31.82 24.85 31.31 25.43 30.69 25.89C30.49 26.07 30.27 26.23 30.03 26.37C29.79 26.49 29.54 26.61 29.28 26.73C29.24 26.75 29.16 26.79 29.04 26.85C28.94 26.89 28.89 26.95 28.89 27.03C28.89 27.09 28.94 27.14 29.04 27.18C29.16 27.2 29.24 27.22 29.28 27.24C29.6 27.32 29.91 27.41 30.21 27.51C30.51 27.59 30.81 27.71 31.11 27.87C32.03 28.31 32.8 28.92 33.42 29.7C34.06 30.48 34.38 31.4 34.38 32.46ZM43.3601 36.54C43.3601 37.16 43.1401 37.7 42.7001 38.16C42.2601 38.62 41.7201 38.85 41.0801 38.85C40.4601 38.85 39.9201 38.62 39.4601 38.16C39.0201 37.7 38.8001 37.16 38.8001 36.54C38.8001 35.9 39.0201 35.36 39.4601 34.92C39.9201 34.46 40.4601 34.23 41.0801 34.23C41.7201 34.23 42.2601 34.46 42.7001 34.92C43.1401 35.36 43.3601 35.9 43.3601 36.54Z" fill="white"/>
</svg>
